<?xml version="1.0" encoding="UTF-8" standalone="no"?>
<svg width="361px" height="83px" viewBox="0 0 361 83" version="1.1" xmlns="http://www.w3.org/2000/svg" xmlns:xlink="http://www.w3.org/1999/xlink" xmlns:sketch="http://www.bohemiancoding.com/sketch/ns">
    <!-- Generator: Sketch 3.4.4 (17249) - http://www.bohemiancoding.com/sketch -->
    <title>maclogo1</title>
    <desc>Created with Sketch.</desc>
    <defs>
        <filter x="-50%" y="-50%" width="200%" height="200%" filterUnits="objectBoundingBox" id="filter-1">
            <feOffset dx="1" dy="1" in="SourceAlpha" result="shadowOffsetOuter1"></feOffset>
            <feGaussianBlur stdDeviation="1" in="shadowOffsetOuter1" result="shadowBlurOuter1"></feGaussianBlur>
            <feColorMatrix values="0 0 0 0 0   0 0 0 0 0   0 0 0 0 0  0 0 0 0.35 0" in="shadowBlurOuter1" type="matrix" result="shadowMatrixOuter1"></feColorMatrix>
            <feMerge>
                <feMergeNode in="shadowMatrixOuter1"></feMergeNode>
                <feMergeNode in="SourceGraphic"></feMergeNode>
            </feMerge>
        </filter>
        <filter x="-50%" y="-50%" width="200%" height="200%" filterUnits="objectBoundingBox" id="filter-2">
            <feOffset dx="1" dy="1" in="SourceAlpha" result="shadowOffsetOuter1"></feOffset>
            <feGaussianBlur stdDeviation="1" in="shadowOffsetOuter1" result="shadowBlurOuter1"></feGaussianBlur>
            <feColorMatrix values="0 0 0 0 0   0 0 0 0 0   0 0 0 0 0  0 0 0 0.35 0" in="shadowBlurOuter1" type="matrix" result="shadowMatrixOuter1"></feColorMatrix>
            <feMerge>
                <feMergeNode in="shadowMatrixOuter1"></feMergeNode>
                <feMergeNode in="SourceGraphic"></feMergeNode>
            </feMerge>
        </filter>
        <filter x="-50%" y="-50%" width="200%" height="200%" filterUnits="objectBoundingBox" id="filter-3">
            <feOffset dx="1" dy="1" in="SourceAlpha" result="shadowOffsetOuter1"></feOffset>
            <feGaussianBlur stdDeviation="1" in="shadowOffsetOuter1" result="shadowBlurOuter1"></feGaussianBlur>
            <feColorMatrix values="0 0 0 0 0   0 0 0 0 0   0 0 0 0 0  0 0 0 0.35 0" in="shadowBlurOuter1" type="matrix" result="shadowMatrixOuter1"></feColorMatrix>
            <feMerge>
                <feMergeNode in="shadowMatrixOuter1"></feMergeNode>
                <feMergeNode in="SourceGraphic"></feMergeNode>
            </feMerge>
        </filter>
        <filter x="-50%" y="-50%" width="200%" height="200%" filterUnits="objectBoundingBox" id="filter-4">
            <feOffset dx="1" dy="1" in="SourceAlpha" result="shadowOffsetOuter1"></feOffset>
            <feGaussianBlur stdDeviation="1" in="shadowOffsetOuter1" result="shadowBlurOuter1"></feGaussianBlur>
            <feColorMatrix values="0 0 0 0 0   0 0 0 0 0   0 0 0 0 0  0 0 0 0.35 0" in="shadowBlurOuter1" type="matrix" result="shadowMatrixOuter1"></feColorMatrix>
            <feMerge>
                <feMergeNode in="shadowMatrixOuter1"></feMergeNode>
                <feMergeNode in="SourceGraphic"></feMergeNode>
            </feMerge>
        </filter>
        <filter x="-50%" y="-50%" width="200%" height="200%" filterUnits="objectBoundingBox" id="filter-5">
            <feOffset dx="1" dy="1" in="SourceAlpha" result="shadowOffsetOuter1"></feOffset>
            <feGaussianBlur stdDeviation="1" in="shadowOffsetOuter1" result="shadowBlurOuter1"></feGaussianBlur>
            <feColorMatrix values="0 0 0 0 0   0 0 0 0 0   0 0 0 0 0  0 0 0 0.35 0" in="shadowBlurOuter1" type="matrix" result="shadowMatrixOuter1"></feColorMatrix>
            <feMerge>
                <feMergeNode in="shadowMatrixOuter1"></feMergeNode>
                <feMergeNode in="SourceGraphic"></feMergeNode>
            </feMerge>
        </filter>
        <filter x="-50%" y="-50%" width="200%" height="200%" filterUnits="objectBoundingBox" id="filter-6">
            <feOffset dx="1" dy="1" in="SourceAlpha" result="shadowOffsetOuter1"></feOffset>
            <feGaussianBlur stdDeviation="1" in="shadowOffsetOuter1" result="shadowBlurOuter1"></feGaussianBlur>
            <feColorMatrix values="0 0 0 0 0   0 0 0 0 0   0 0 0 0 0  0 0 0 0.35 0" in="shadowBlurOuter1" type="matrix" result="shadowMatrixOuter1"></feColorMatrix>
            <feMerge>
                <feMergeNode in="shadowMatrixOuter1"></feMergeNode>
                <feMergeNode in="SourceGraphic"></feMergeNode>
            </feMerge>
        </filter>
        <filter x="-50%" y="-50%" width="200%" height="200%" filterUnits="objectBoundingBox" id="filter-7">
            <feOffset dx="1" dy="1" in="SourceAlpha" result="shadowOffsetOuter1"></feOffset>
            <feGaussianBlur stdDeviation="1" in="shadowOffsetOuter1" result="shadowBlurOuter1"></feGaussianBlur>
            <feColorMatrix values="0 0 0 0 0   0 0 0 0 0   0 0 0 0 0  0 0 0 0.35 0" in="shadowBlurOuter1" type="matrix" result="shadowMatrixOuter1"></feColorMatrix>
            <feMerge>
                <feMergeNode in="shadowMatrixOuter1"></feMergeNode>
                <feMergeNode in="SourceGraphic"></feMergeNode>
            </feMerge>
        </filter>
        <filter x="-50%" y="-50%" width="200%" height="200%" filterUnits="objectBoundingBox" id="filter-8">
            <feOffset dx="1" dy="1" in="SourceAlpha" result="shadowOffsetOuter1"></feOffset>
            <feGaussianBlur stdDeviation="1" in="shadowOffsetOuter1" result="shadowBlurOuter1"></feGaussianBlur>
            <feColorMatrix values="0 0 0 0 0   0 0 0 0 0   0 0 0 0 0  0 0 0 0.35 0" in="shadowBlurOuter1" type="matrix" result="shadowMatrixOuter1"></feColorMatrix>
            <feMerge>
                <feMergeNode in="shadowMatrixOuter1"></feMergeNode>
                <feMergeNode in="SourceGraphic"></feMergeNode>
            </feMerge>
        </filter>
        <filter x="-50%" y="-50%" width="200%" height="200%" filterUnits="objectBoundingBox" id="filter-9">
            <feOffset dx="1" dy="1" in="SourceAlpha" result="shadowOffsetOuter1"></feOffset>
            <feGaussianBlur stdDeviation="1" in="shadowOffsetOuter1" result="shadowBlurOuter1"></feGaussianBlur>
            <feColorMatrix values="0 0 0 0 0   0 0 0 0 0   0 0 0 0 0  0 0 0 0.35 0" in="shadowBlurOuter1" type="matrix" result="shadowMatrixOuter1"></feColorMatrix>
            <feMerge>
                <feMergeNode in="shadowMatrixOuter1"></feMergeNode>
                <feMergeNode in="SourceGraphic"></feMergeNode>
            </feMerge>
        </filter>
        <filter x="-50%" y="-50%" width="200%" height="200%" filterUnits="objectBoundingBox" id="filter-10">
            <feOffset dx="1" dy="1" in="SourceAlpha" result="shadowOffsetOuter1"></feOffset>
            <feGaussianBlur stdDeviation="1" in="shadowOffsetOuter1" result="shadowBlurOuter1"></feGaussianBlur>
            <feColorMatrix values="0 0 0 0 0   0 0 0 0 0   0 0 0 0 0  0 0 0 0.35 0" in="shadowBlurOuter1" type="matrix" result="shadowMatrixOuter1"></feColorMatrix>
            <feMerge>
                <feMergeNode in="shadowMatrixOuter1"></feMergeNode>
                <feMergeNode in="SourceGraphic"></feMergeNode>
            </feMerge>
        </filter>
        <filter x="-50%" y="-50%" width="200%" height="200%" filterUnits="objectBoundingBox" id="filter-11">
            <feOffset dx="1" dy="1" in="SourceAlpha" result="shadowOffsetOuter1"></feOffset>
            <feGaussianBlur stdDeviation="1" in="shadowOffsetOuter1" result="shadowBlurOuter1"></feGaussianBlur>
            <feColorMatrix values="0 0 0 0 0   0 0 0 0 0   0 0 0 0 0  0 0 0 0.35 0" in="shadowBlurOuter1" type="matrix" result="shadowMatrixOuter1"></feColorMatrix>
            <feMerge>
                <feMergeNode in="shadowMatrixOuter1"></feMergeNode>
                <feMergeNode in="SourceGraphic"></feMergeNode>
            </feMerge>
        </filter>
        <filter x="-50%" y="-50%" width="200%" height="200%" filterUnits="objectBoundingBox" id="filter-12">
            <feOffset dx="1" dy="1" in="SourceAlpha" result="shadowOffsetOuter1"></feOffset>
            <feGaussianBlur stdDeviation="1" in="shadowOffsetOuter1" result="shadowBlurOuter1"></feGaussianBlur>
            <feColorMatrix values="0 0 0 0 0   0 0 0 0 0   0 0 0 0 0  0 0 0 0.35 0" in="shadowBlurOuter1" type="matrix" result="shadowMatrixOuter1"></feColorMatrix>
            <feMerge>
                <feMergeNode in="shadowMatrixOuter1"></feMergeNode>
                <feMergeNode in="SourceGraphic"></feMergeNode>
            </feMerge>
        </filter>
        <filter x="-50%" y="-50%" width="200%" height="200%" filterUnits="objectBoundingBox" id="filter-13">
            <feOffset dx="1" dy="1" in="SourceAlpha" result="shadowOffsetOuter1"></feOffset>
            <feGaussianBlur stdDeviation="2" in="shadowOffsetOuter1" result="shadowBlurOuter1"></feGaussianBlur>
            <feColorMatrix values="0 0 0 0 0   0 0 0 0 0   0 0 0 0 0  0 0 0 0.35 0" in="shadowBlurOuter1" type="matrix" result="shadowMatrixOuter1"></feColorMatrix>
            <feMerge>
                <feMergeNode in="shadowMatrixOuter1"></feMergeNode>
                <feMergeNode in="SourceGraphic"></feMergeNode>
            </feMerge>
        </filter>
        <filter x="-50%" y="-50%" width="200%" height="200%" filterUnits="objectBoundingBox" id="filter-14">
            <feOffset dx="1" dy="1" in="SourceAlpha" result="shadowOffsetOuter1"></feOffset>
            <feGaussianBlur stdDeviation="2" in="shadowOffsetOuter1" result="shadowBlurOuter1"></feGaussianBlur>
            <feColorMatrix values="0 0 0 0 0   0 0 0 0 0   0 0 0 0 0  0 0 0 0.35 0" in="shadowBlurOuter1" type="matrix" result="shadowMatrixOuter1"></feColorMatrix>
            <feMerge>
                <feMergeNode in="shadowMatrixOuter1"></feMergeNode>
                <feMergeNode in="SourceGraphic"></feMergeNode>
            </feMerge>
        </filter>
        <filter x="-50%" y="-50%" width="200%" height="200%" filterUnits="objectBoundingBox" id="filter-15">
            <feOffset dx="1" dy="1" in="SourceAlpha" result="shadowOffsetOuter1"></feOffset>
            <feGaussianBlur stdDeviation="2" in="shadowOffsetOuter1" result="shadowBlurOuter1"></feGaussianBlur>
            <feColorMatrix values="0 0 0 0 0   0 0 0 0 0   0 0 0 0 0  0 0 0 0.35 0" in="shadowBlurOuter1" type="matrix" result="shadowMatrixOuter1"></feColorMatrix>
            <feMerge>
                <feMergeNode in="shadowMatrixOuter1"></feMergeNode>
                <feMergeNode in="SourceGraphic"></feMergeNode>
            </feMerge>
        </filter>
        <filter x="-50%" y="-50%" width="200%" height="200%" filterUnits="objectBoundingBox" id="filter-16">
            <feOffset dx="1" dy="1" in="SourceAlpha" result="shadowOffsetOuter1"></feOffset>
            <feGaussianBlur stdDeviation="2" in="shadowOffsetOuter1" result="shadowBlurOuter1"></feGaussianBlur>
            <feColorMatrix values="0 0 0 0 0   0 0 0 0 0   0 0 0 0 0  0 0 0 0.35 0" in="shadowBlurOuter1" type="matrix" result="shadowMatrixOuter1"></feColorMatrix>
            <feMerge>
                <feMergeNode in="shadowMatrixOuter1"></feMergeNode>
                <feMergeNode in="SourceGraphic"></feMergeNode>
            </feMerge>
        </filter>
        <filter x="-50%" y="-50%" width="200%" height="200%" filterUnits="objectBoundingBox" id="filter-17">
            <feOffset dx="1" dy="1" in="SourceAlpha" result="shadowOffsetOuter1"></feOffset>
            <feGaussianBlur stdDeviation="2" in="shadowOffsetOuter1" result="shadowBlurOuter1"></feGaussianBlur>
            <feColorMatrix values="0 0 0 0 0   0 0 0 0 0   0 0 0 0 0  0 0 0 0.35 0" in="shadowBlurOuter1" type="matrix" result="shadowMatrixOuter1"></feColorMatrix>
            <feMerge>
                <feMergeNode in="shadowMatrixOuter1"></feMergeNode>
                <feMergeNode in="SourceGraphic"></feMergeNode>
            </feMerge>
        </filter>
        <filter x="-50%" y="-50%" width="200%" height="200%" filterUnits="objectBoundingBox" id="filter-18">
            <feOffset dx="1" dy="1" in="SourceAlpha" result="shadowOffsetOuter1"></feOffset>
            <feGaussianBlur stdDeviation="2" in="shadowOffsetOuter1" result="shadowBlurOuter1"></feGaussianBlur>
            <feColorMatrix values="0 0 0 0 0   0 0 0 0 0   0 0 0 0 0  0 0 0 0.35 0" in="shadowBlurOuter1" type="matrix" result="shadowMatrixOuter1"></feColorMatrix>
            <feMerge>
                <feMergeNode in="shadowMatrixOuter1"></feMergeNode>
                <feMergeNode in="SourceGraphic"></feMergeNode>
            </feMerge>
        </filter>
        <filter x="-50%" y="-50%" width="200%" height="200%" filterUnits="objectBoundingBox" id="filter-19">
            <feOffset dx="1" dy="1" in="SourceAlpha" result="shadowOffsetOuter1"></feOffset>
            <feGaussianBlur stdDeviation="2" in="shadowOffsetOuter1" result="shadowBlurOuter1"></feGaussianBlur>
            <feColorMatrix values="0 0 0 0 0   0 0 0 0 0   0 0 0 0 0  0 0 0 0.35 0" in="shadowBlurOuter1" type="matrix" result="shadowMatrixOuter1"></feColorMatrix>
            <feMerge>
                <feMergeNode in="shadowMatrixOuter1"></feMergeNode>
                <feMergeNode in="SourceGraphic"></feMergeNode>
            </feMerge>
        </filter>
        <filter x="-50%" y="-50%" width="200%" height="200%" filterUnits="objectBoundingBox" id="filter-20">
            <feOffset dx="1" dy="1" in="SourceAlpha" result="shadowOffsetOuter1"></feOffset>
            <feGaussianBlur stdDeviation="2" in="shadowOffsetOuter1" result="shadowBlurOuter1"></feGaussianBlur>
            <feColorMatrix values="0 0 0 0 0   0 0 0 0 0   0 0 0 0 0  0 0 0 0.35 0" in="shadowBlurOuter1" type="matrix" result="shadowMatrixOuter1"></feColorMatrix>
            <feMerge>
                <feMergeNode in="shadowMatrixOuter1"></feMergeNode>
                <feMergeNode in="SourceGraphic"></feMergeNode>
            </feMerge>
        </filter>
        <filter x="-50%" y="-50%" width="200%" height="200%" filterUnits="objectBoundingBox" id="filter-21">
            <feOffset dx="1" dy="1" in="SourceAlpha" result="shadowOffsetOuter1"></feOffset>
            <feGaussianBlur stdDeviation="2" in="shadowOffsetOuter1" result="shadowBlurOuter1"></feGaussianBlur>
            <feColorMatrix values="0 0 0 0 0   0 0 0 0 0   0 0 0 0 0  0 0 0 0.35 0" in="shadowBlurOuter1" type="matrix" result="shadowMatrixOuter1"></feColorMatrix>
            <feMerge>
                <feMergeNode in="shadowMatrixOuter1"></feMergeNode>
                <feMergeNode in="SourceGraphic"></feMergeNode>
            </feMerge>
        </filter>
        <filter x="-50%" y="-50%" width="200%" height="200%" filterUnits="objectBoundingBox" id="filter-22">
            <feOffset dx="1" dy="1" in="SourceAlpha" result="shadowOffsetOuter1"></feOffset>
            <feGaussianBlur stdDeviation="2" in="shadowOffsetOuter1" result="shadowBlurOuter1"></feGaussianBlur>
            <feColorMatrix values="0 0 0 0 0   0 0 0 0 0   0 0 0 0 0  0 0 0 0.35 0" in="shadowBlurOuter1" type="matrix" result="shadowMatrixOuter1"></feColorMatrix>
            <feMerge>
                <feMergeNode in="shadowMatrixOuter1"></feMergeNode>
                <feMergeNode in="SourceGraphic"></feMergeNode>
            </feMerge>
        </filter>
    </defs>
    <g id="Page-1" stroke="none" stroke-width="1" fill="none" fill-rule="evenodd" sketch:type="MSPage">
        <g id="Logo" sketch:type="MSLayerGroup">
            <path d="M77.525,58.004 C77.932,57.921 78.261,57.88 78.513,57.88 C79.714,57.88 80.315,58.134 80.315,58.642 C80.276,58.738 80.01,58.934 79.515,59.229 C79.021,59.524 78.668,59.912 78.455,60.392 C77.312,62.945 76.74,66.226 76.74,70.234 C76.74,72.266 76.963,74.194 77.408,76.02 C78.106,78.903 79.22,80.344 80.751,80.344 C82.068,80.344 84.161,77.551 87.028,71.964 C87.396,71.264 87.58,71.01 87.58,71.202 C87.58,73.81 87.028,76.164 85.924,78.264 C84.451,81.106 82.242,82.561 79.297,82.63 C77.476,82.671 75.887,81.641 74.531,79.541 C73.679,78.196 73.001,76.59 72.497,74.723 C69.397,79.843 65.919,82.403 62.063,82.403 C58.963,82.403 56.348,81.051 54.216,78.347 C52.085,75.643 51.019,72.458 51.019,68.793 C51.019,64.496 52.444,60.982 55.292,58.251 C58.508,55.176 63.081,53.638 69.009,53.638 C74.337,53.638 77.176,55.093 77.525,58.004 L77.525,58.004 Z M62.906,79.356 C65.328,79.356 67.537,77.331 69.532,73.282 C70.792,70.715 71.799,67.805 72.555,64.551 C72.981,62.657 73.194,61.078 73.194,59.816 C73.194,58.896 73.078,58.134 72.846,57.53 C72.342,56.212 70.753,55.56 68.079,55.574 C63.759,55.588 60.571,57.111 58.518,60.145 C56.948,62.437 56.154,65.299 56.135,68.731 C56.115,72.108 56.919,74.867 58.547,77.008 C59.729,78.573 61.182,79.356 62.906,79.356 L62.906,79.356 Z" id="Fill-1" fill="#0F7E12" filter="url(#filter-1)" sketch:type="MSShapeGroup"></path>
            <path d="M101.099,63.398 C101.913,63.398 102.281,63.667 102.204,64.203 C101.467,68.91 101.099,71.725 101.099,72.647 C101.099,73.501 101.293,74.636 101.681,76.054 C102.184,77.884 102.775,78.8 103.453,78.8 C104.17,78.8 105.27,77.568 106.752,75.104 C108.234,72.64 109.198,71.408 109.644,71.408 C109.702,71.422 109.731,71.484 109.731,71.594 C109.731,72.338 109.179,73.757 108.074,75.851 C105.73,80.247 103.55,82.444 101.535,82.444 C98.784,82.444 96.856,80.33 95.752,76.102 C92.768,80.33 90.094,82.444 87.731,82.444 C84.224,82.444 82.47,79.603 82.47,73.92 C82.47,73 82.62,71.638 82.921,69.833 C83.221,68.028 83.371,66.679 83.371,65.787 C83.371,65.649 83.269,65.478 83.066,65.272 C82.863,65.066 82.761,64.894 82.761,64.757 C82.761,64.387 83.642,64.043 85.406,63.728 C86.878,63.453 88.07,63.316 88.98,63.316 C89.697,63.316 90.056,63.508 90.056,63.892 C90.056,65.045 89.75,66.796 89.14,69.143 C88.53,71.49 88.225,73.261 88.225,74.455 C88.225,76.487 88.496,77.853 89.038,78.553 C89.31,78.923 89.668,79.115 90.114,79.129 C90.598,79.129 91.053,78.937 91.48,78.553 C92.681,77.482 93.853,74.984 94.996,71.058 C95.752,68.436 96.265,66.219 96.537,64.407 C96.575,64.146 97.253,63.899 98.571,63.666 C99.656,63.487 100.499,63.398 101.099,63.398" id="Fill-2" fill="#0F7E12" filter="url(#filter-2)" sketch:type="MSShapeGroup"></path>
            <path d="M108.826,66.034 C108.361,66.089 107.422,66.041 106.007,65.89 C104.399,65.711 103.585,65.485 103.566,65.21 C103.547,64.963 103.731,64.785 104.118,64.675 C104.641,64.496 106.337,64.16 109.204,63.666 C109.107,63.034 109.078,62.163 109.117,61.051 C109.194,59.321 109.233,58.436 109.233,58.395 C109.233,58.189 110.008,57.914 111.558,57.571 C113.031,57.255 114.077,57.098 114.697,57.098 C115.472,57.098 115.859,57.324 115.859,57.777 C115.859,58.367 115.583,59.304 115.031,60.588 C114.479,61.871 114.222,62.877 114.261,63.604 C119.357,63.961 122.03,64.139 122.282,64.139 C122.825,64.139 123.338,64.126 123.823,64.098 C122.854,65.114 119.531,65.842 113.854,66.281 C113.835,66.651 113.786,67.454 113.709,68.69 C113.651,69.678 113.622,70.481 113.622,71.099 C113.622,74.778 113.98,77.187 114.697,78.326 C114.949,78.71 115.327,78.903 115.83,78.903 C116.179,78.903 116.499,78.807 116.789,78.614 C117.313,78.258 118.291,77.132 119.725,75.238 C121.062,73.481 121.953,72.533 122.399,72.396 C120.694,75.43 119.628,77.255 119.202,77.873 C117.032,80.921 114.968,82.444 113.011,82.444 C110.88,82.444 109.485,81.277 108.826,78.944 C108.536,77.901 108.39,76.212 108.39,73.879 C108.39,72.218 108.536,69.603 108.826,66.034" id="Fill-3" fill="#0F7E12" filter="url(#filter-3)" sketch:type="MSShapeGroup"></path>
            <path d="M128.13,82.444 C125.34,82.444 123.296,81.264 121.998,78.903 C121.107,77.242 120.661,75.244 120.661,72.911 C120.661,71.277 120.99,69.678 121.649,68.113 C122.463,66.137 123.625,64.812 125.137,64.139 C125.66,63.906 126.299,63.728 127.055,63.604 C128.217,63.426 128.871,63.319 129.016,63.285 C129.162,63.251 129.709,63.069 130.659,62.739 C131.317,62.52 131.899,62.41 132.402,62.41 C136.006,62.41 137.808,65.361 137.808,71.264 C137.808,74.078 137.169,76.48 135.89,78.47 C134.185,81.12 131.598,82.444 128.13,82.444 L128.13,82.444 Z M129.438,64.634 C128.334,64.634 127.433,65.773 126.735,68.052 C126.231,69.671 125.979,71.01 125.979,72.067 C125.979,76.391 126.997,78.903 129.031,79.603 C129.574,79.685 130.029,79.651 130.397,79.5 C132.005,78.36 132.848,75.896 132.925,72.108 C133.003,67.125 131.84,64.634 129.438,64.634 L129.438,64.634 Z" id="Fill-4" fill="#0F7E12" filter="url(#filter-4)" sketch:type="MSShapeGroup"></path>
            <path d="M157.658,68.875 C157.658,71.826 158.336,74.277 159.692,76.226 C161.281,78.532 163.267,79.685 165.65,79.685 C167.336,79.685 169.234,78.518 171.346,76.185 C171.404,76.116 172.373,74.709 174.253,71.964 C175.861,69.644 176.829,68.484 177.159,68.484 C177.256,68.484 177.304,68.566 177.304,68.731 C177.304,68.868 177.139,69.424 176.81,70.399 C175.512,74.174 174.34,76.761 173.293,78.161 C171.201,81.017 168.266,82.444 164.487,82.444 C160.419,82.444 157.299,81.099 155.129,78.409 C153.192,76.02 152.223,73.041 152.223,69.472 C152.223,65.711 153.192,62.472 155.129,59.754 C157.532,56.349 161.097,54.448 165.824,54.05 C166.347,54.009 166.842,53.988 167.307,53.988 C171.065,53.988 173.439,55.581 174.427,58.765 C174.718,59.74 174.863,60.776 174.863,61.875 C174.863,62.89 174.669,63.762 174.282,64.489 C173.797,65.395 173.061,65.945 172.073,66.137 C171.433,66.178 170.93,65.986 170.562,65.56 C170.252,65.217 170.097,64.798 170.097,64.304 C170.097,63.728 170.227,62.863 170.489,61.71 C170.75,60.557 170.881,59.692 170.881,59.115 C170.881,58.155 170.378,57.358 169.37,56.727 C168.362,56.096 167.181,55.78 165.824,55.78 C161.678,55.78 159.072,58.923 158.007,65.21 C157.774,66.528 157.658,67.75 157.658,68.875" id="Fill-5" fill="#0F7E12" filter="url(#filter-5)" sketch:type="MSShapeGroup"></path>
            <path d="M182.799,82.444 C180.009,82.444 177.965,81.264 176.667,78.903 C175.776,77.242 175.33,75.244 175.33,72.911 C175.33,71.277 175.659,69.678 176.318,68.113 C177.132,66.137 178.294,64.812 179.806,64.139 C180.329,63.906 180.968,63.728 181.724,63.604 C182.886,63.426 183.54,63.319 183.685,63.285 C183.831,63.251 184.378,63.069 185.327,62.739 C185.986,62.52 186.567,62.41 187.071,62.41 C190.675,62.41 192.477,65.361 192.477,71.264 C192.477,74.078 191.838,76.48 190.559,78.47 C188.854,81.12 186.267,82.444 182.799,82.444 L182.799,82.444 Z M184.107,64.634 C183.002,64.634 182.102,65.773 181.404,68.052 C180.9,69.671 180.648,71.01 180.648,72.067 C180.648,76.391 181.666,78.903 183.7,79.603 C184.242,79.685 184.698,79.651 185.066,79.5 C186.674,78.36 187.517,75.896 187.594,72.108 C187.672,67.125 186.509,64.634 184.107,64.634 L184.107,64.634 Z" id="Fill-6" fill="#0F7E12" filter="url(#filter-6)" sketch:type="MSShapeGroup"></path>
            <path d="M201.714,82.506 C198.943,82.506 196.851,80.564 195.436,76.679 C194.448,73.961 193.954,71.113 193.954,68.134 C193.954,65.128 194.555,62.17 195.756,59.26 C197.5,55.032 200.067,52.918 203.458,52.918 C204.853,52.918 205.87,53.597 206.509,54.956 C206.974,55.903 207.207,57.015 207.207,58.292 C207.207,60.941 206.662,63.481 205.573,65.91 C204.269,68.793 202.402,70.969 199.97,72.437 C200.339,76.72 201.641,78.861 203.875,78.861 C205.507,78.861 207.499,76.377 209.85,71.408 C210.083,70.914 210.258,70.667 210.374,70.667 C210.452,70.667 210.423,71.223 210.287,72.334 C209.977,74.723 209.154,76.892 207.817,78.841 C206.151,81.284 204.116,82.506 201.714,82.506 L201.714,82.506 Z M200.086,69.719 C200.861,69.719 201.607,68.299 202.324,65.457 C202.983,62.904 203.283,60.9 203.225,59.445 C203.109,57.029 202.721,55.821 202.062,55.821 C201.811,56.562 201.588,57.434 201.394,58.436 C201.026,60.275 200.551,63.034 199.97,66.713 C199.815,68.086 199.854,69.088 200.086,69.719 L200.086,69.719 Z" id="Fill-7" fill="#0F7E12" filter="url(#filter-7)" sketch:type="MSShapeGroup"></path>
            <path d="M216.777,82.506 C214.006,82.506 211.913,80.564 210.499,76.679 C209.511,73.961 209.017,71.113 209.017,68.134 C209.017,65.128 209.618,62.17 210.819,59.26 C212.563,55.032 215.13,52.918 218.52,52.918 C219.915,52.918 220.933,53.597 221.572,54.956 C222.037,55.903 222.269,57.015 222.269,58.292 C222.269,60.941 221.725,63.481 220.636,65.91 C219.332,68.793 217.464,70.969 215.033,72.437 C215.402,76.72 216.704,78.861 218.938,78.861 C220.57,78.861 222.562,76.377 224.913,71.408 C225.146,70.914 225.321,70.667 225.437,70.667 C225.515,70.667 225.486,71.223 225.35,72.334 C225.04,74.723 224.217,76.892 222.88,78.841 C221.214,81.284 219.179,82.506 216.777,82.506 L216.777,82.506 Z M215.149,69.719 C215.924,69.719 216.67,68.299 217.387,65.457 C218.046,62.904 218.346,60.9 218.288,59.445 C218.172,57.029 217.784,55.821 217.125,55.821 C216.874,56.562 216.651,57.434 216.457,58.436 C216.089,60.275 215.614,63.034 215.033,66.713 C214.878,68.086 214.917,69.088 215.149,69.719 L215.149,69.719 Z" id="Fill-8" fill="#0F7E12" filter="url(#filter-8)" sketch:type="MSShapeGroup"></path>
            <path d="M224.827,64.963 C224.827,64.373 225.528,63.94 226.93,63.666 C227.942,63.46 228.983,63.371 230.054,63.398 L230.959,63.419 C230.436,66.205 230.175,68.354 230.175,69.864 L230.175,72.087 C230.175,73.391 230.291,75.54 230.523,78.532 L236.539,70.358 L236.539,70.914 C236.539,71.998 235.832,74.085 234.418,77.173 C232.81,80.687 231.366,82.444 230.087,82.444 C228.595,82.444 227.312,82.05 226.237,81.26 C225.161,80.471 224.643,79.555 224.682,78.511 C224.779,76.013 224.827,71.497 224.827,64.963 L224.827,64.963 Z M224.565,56.665 C224.565,55.334 224.72,54.435 225.03,53.968 C225.534,53.227 226.59,52.856 228.198,52.856 C229.613,52.856 230.475,53.131 230.785,53.68 C230.901,53.899 230.959,54.634 230.959,55.883 C230.959,60.152 230.514,62.286 229.622,62.286 C226.251,62.286 224.565,60.413 224.565,56.665 L224.565,56.665 Z" id="Fill-9" fill="#0F7E12" filter="url(#filter-9)" sketch:type="MSShapeGroup"></path>
            <path d="M254.841,70.831 C254.202,70.749 253.485,70.66 252.691,70.564 C250.773,70.248 249.814,69.603 249.814,68.628 C249.814,68.422 249.862,68.038 249.959,67.475 C250.056,66.912 250.104,66.446 250.104,66.075 C250.104,64.73 248.477,64.057 245.222,64.057 C243.943,64.057 242.761,64.438 241.676,65.2 C240.591,65.962 240.049,66.789 240.049,67.681 C240.049,68.271 241.434,69.26 244.204,70.646 C249.281,73.185 251.848,74.476 251.906,74.517 C254.677,76.082 256.062,77.379 256.062,78.409 C256.062,79.767 254.115,80.831 250.22,81.6 C247.237,82.19 244.321,82.472 241.473,82.444 C239.961,82.43 238.266,82.279 236.387,81.991 C233.868,81.607 232.608,81.126 232.608,80.55 C232.608,80.22 232.909,79.857 233.509,79.459 C234.11,79.061 234.662,78.861 235.166,78.861 C235.592,78.861 237.026,79.115 239.467,79.623 C241.909,80.131 243.972,80.385 245.658,80.385 C249.261,80.385 251.063,79.864 251.063,78.82 C251.063,77.777 249.678,76.562 246.907,75.176 C244.33,73.968 241.754,72.76 239.177,71.552 C236.406,70.111 235.021,68.779 235.021,67.557 C235.021,65.924 236.367,64.654 239.06,63.748 C241.172,63.048 243.517,62.698 246.094,62.698 C248.515,62.698 250.511,63.028 252.08,63.686 C253.96,64.483 254.9,65.67 254.9,67.249 C254.9,69.898 254.88,71.092 254.841,70.831" id="Fill-10" fill="#0F7E12" filter="url(#filter-10)" sketch:type="MSShapeGroup"></path>
            <path d="M257.079,64.963 C257.079,64.373 257.78,63.94 259.182,63.666 C260.194,63.46 261.236,63.371 262.306,63.398 L263.211,63.419 C262.688,66.205 262.427,68.354 262.427,69.864 L262.427,72.087 C262.427,73.391 262.543,75.54 262.776,78.532 L268.792,70.358 L268.792,70.914 C268.792,71.998 268.084,74.085 266.67,77.173 C265.062,80.687 263.618,82.444 262.34,82.444 C260.848,82.444 259.564,82.05 258.489,81.26 C257.413,80.471 256.895,79.555 256.934,78.511 C257.031,76.013 257.079,71.497 257.079,64.963 L257.079,64.963 Z M256.818,56.665 C256.818,55.334 256.973,54.435 257.283,53.968 C257.786,53.227 258.842,52.856 260.451,52.856 C261.865,52.856 262.727,53.131 263.037,53.68 C263.153,53.899 263.211,54.634 263.211,55.883 C263.211,60.152 262.766,62.286 261.875,62.286 C258.503,62.286 256.818,60.413 256.818,56.665 L256.818,56.665 Z" id="Fill-11" fill="#0F7E12" filter="url(#filter-11)" sketch:type="MSShapeGroup"></path>
            <path d="M273.882,82.444 C271.092,82.444 269.048,81.264 267.75,78.903 C266.859,77.242 266.413,75.244 266.413,72.911 C266.413,71.277 266.743,69.678 267.401,68.113 C268.215,66.137 269.378,64.812 270.889,64.139 C271.412,63.906 272.051,63.728 272.807,63.604 C273.97,63.426 274.623,63.319 274.769,63.285 C274.914,63.251 275.461,63.069 276.411,62.739 C277.07,62.52 277.651,62.41 278.155,62.41 C281.758,62.41 283.56,65.361 283.56,71.264 C283.56,74.078 282.921,76.48 281.642,78.47 C279.937,81.12 277.35,82.444 273.882,82.444 L273.882,82.444 Z M275.19,64.634 C274.086,64.634 273.185,65.773 272.487,68.052 C271.984,69.671 271.732,71.01 271.732,72.067 C271.732,76.391 272.749,78.903 274.783,79.603 C275.326,79.685 275.781,79.651 276.149,79.5 C277.757,78.36 278.6,75.896 278.678,72.108 C278.755,67.125 277.593,64.634 275.19,64.634 L275.19,64.634 Z" id="Fill-12" fill="#0F7E12" filter="url(#filter-12)" sketch:type="MSShapeGroup"></path>
            <path d="M290.203,62.822 L292.034,62.863 C291.317,64.26 290.959,66.191 290.959,68.656 L290.959,70.197 C290.978,70.854 290.978,71.367 290.959,71.737 C292.315,69.17 293.381,67.468 294.156,66.631 C295.783,64.929 297.905,64.078 300.521,64.078 C301.373,64.078 301.799,64.332 301.799,64.84 C301.799,65.855 301.693,67.118 301.48,68.628 C301.112,71.113 300.918,72.382 300.898,72.437 C300.782,73.412 300.918,74.675 301.305,76.226 C301.77,78.23 302.497,79.232 303.485,79.232 C304.415,79.232 305.481,77.983 306.682,75.485 C307.341,73.934 307.99,72.382 308.629,70.831 C308.823,70.419 309.036,70.234 309.268,70.275 C308.9,71.689 308.532,73.096 308.164,74.496 C307.486,76.775 306.701,78.553 305.81,79.829 C304.628,81.573 303.223,82.437 301.596,82.424 C300.743,82.41 299.852,82.032 298.922,81.291 C297.043,79.795 295.958,77.846 295.667,75.444 C295.396,73.288 295.26,71.106 295.26,68.896 C295.008,68.896 294.408,69.996 293.458,72.195 C292.102,75.714 290.717,79.268 289.302,82.856 C287.752,82.347 286.735,81.853 286.251,81.372 C285.689,80.795 285.437,79.887 285.495,78.65 L286.164,65.519 L281.659,70.419 L285.408,64.157 C285.97,63.212 287.568,62.767 290.203,62.822" id="Fill-13" fill="#0F7E12" filter="url(#filter-13)" sketch:type="MSShapeGroup"></path>
            <path d="M0.144,0.667 L20.011,0.667 L24.878,30.067 L29.646,0.667 L49.513,0.667 L49.513,41.783 L38.487,41.783 L38.487,7.575 L30.242,41.783 L19.316,41.783 L11.17,7.575 L11.17,41.783 L0.144,41.783 L0.144,0.667" id="Fill-14" fill="#000000" filter="url(#filter-14)" sketch:type="MSShapeGroup"></path>
            <path d="M75.382,42.17 C72.336,42.17 69.836,42.032 67.882,41.756 C65.929,41.479 64.373,41.037 63.214,40.429 C62.055,39.821 61.26,39.048 60.83,38.108 C60.399,37.169 60.184,36.036 60.184,34.709 L60.184,7.631 C60.184,6.304 60.399,5.171 60.83,4.232 C61.26,3.292 62.055,2.519 63.214,1.911 C64.373,1.303 65.929,0.861 67.882,0.584 C69.836,0.308 72.336,0.17 75.382,0.17 C78.428,0.17 80.945,0.308 82.932,0.584 C84.918,0.861 86.491,1.303 87.65,1.911 C88.809,2.519 89.62,3.292 90.084,4.232 C90.547,5.171 90.779,6.304 90.779,7.631 L90.779,15.367 L79.554,15.367 L79.554,7.244 C79.554,5.991 79.306,5.125 78.809,4.646 C78.312,4.167 77.203,3.928 75.481,3.928 C73.76,3.928 72.65,4.167 72.154,4.646 C71.657,5.125 71.409,5.991 71.409,7.244 L71.409,35.152 C71.409,36.367 71.641,37.215 72.104,37.694 C72.568,38.173 73.66,38.412 75.382,38.412 C77.104,38.412 78.23,38.173 78.759,37.694 C79.289,37.215 79.554,36.367 79.554,35.152 L79.554,27.138 L90.779,27.138 L90.779,34.709 C90.779,36.036 90.547,37.169 90.084,38.108 C89.62,39.048 88.809,39.821 87.65,40.429 C86.491,41.037 84.918,41.479 82.932,41.756 C80.945,42.032 78.428,42.17 75.382,42.17" id="Fill-15" fill="#000000" filter="url(#filter-15)" sketch:type="MSShapeGroup"></path>
            <path d="M117.067,42.17 C114.021,42.17 111.521,42.032 109.567,41.756 C107.613,41.479 106.057,41.037 104.898,40.429 C103.739,39.821 102.945,39.048 102.514,38.108 C102.084,37.169 101.869,36.036 101.869,34.709 L101.869,7.631 C101.869,6.304 102.084,5.171 102.514,4.232 C102.945,3.292 103.739,2.519 104.898,1.911 C106.057,1.303 107.613,0.861 109.567,0.584 C111.521,0.308 114.021,0.17 117.067,0.17 C120.113,0.17 122.629,0.308 124.616,0.584 C126.603,0.861 128.176,1.303 129.335,1.911 C130.493,2.519 131.305,3.292 131.768,4.232 C132.232,5.171 132.464,6.304 132.464,7.631 L132.464,15.367 L121.239,15.367 L121.239,7.244 C121.239,5.991 120.99,5.125 120.494,4.646 C119.997,4.167 118.888,3.928 117.166,3.928 C115.444,3.928 114.335,4.167 113.838,4.646 C113.342,5.125 113.093,5.991 113.093,7.244 L113.093,35.152 C113.093,36.367 113.325,37.215 113.789,37.694 C114.252,38.173 115.345,38.412 117.067,38.412 C118.789,38.412 119.914,38.173 120.444,37.694 C120.974,37.215 121.239,36.367 121.239,35.152 L121.239,27.138 L132.464,27.138 L132.464,34.709 C132.464,36.036 132.232,37.169 131.768,38.108 C131.305,39.048 130.493,39.821 129.335,40.429 C128.176,41.037 126.603,41.479 124.616,41.756 C122.629,42.032 120.113,42.17 117.067,42.17" id="Fill-16" fill="#000000" filter="url(#filter-16)" sketch:type="MSShapeGroup"></path>
            <path d="M143.553,0.667 L155.275,0.667 L155.275,38.025 L168.486,38.025 L168.486,41.783 L143.553,41.783 L143.553,0.667" id="Fill-17" fill="#000000" filter="url(#filter-17)" sketch:type="MSShapeGroup"></path>
            <path d="M177.231,1.04 L188.456,1.04 L188.456,41.783 L177.231,41.783 L177.231,1.04 Z" id="Fill-18" fill="#000000" filter="url(#filter-18)" sketch:type="MSShapeGroup"></path>
            <path d="M199.645,0.667 L211.962,0.667 L222.69,24.541 L222.69,0.667 L233.617,0.667 L233.617,41.783 L222.69,41.783 L210.571,16.086 L210.571,41.783 L199.645,41.783 L199.645,0.667" id="Fill-19" fill="#000000" filter="url(#filter-19)" sketch:type="MSShapeGroup"></path>
            <path d="M254.251,4.536 L243.424,4.536 L243.424,0.667 L276.304,0.667 L276.304,4.536 L265.476,4.536 L265.476,41.783 L254.251,41.783 L254.251,4.536" id="Fill-20" fill="#000000" filter="url(#filter-20)" sketch:type="MSShapeGroup"></path>
            <path d="M299.586,42.17 C296.54,42.17 294.04,42.032 292.086,41.756 C290.133,41.479 288.576,41.037 287.417,40.429 C286.258,39.821 285.464,39.048 285.033,38.108 C284.603,37.169 284.388,36.036 284.388,34.709 L284.388,7.631 C284.388,6.304 284.603,5.171 285.033,4.232 C285.464,3.292 286.258,2.519 287.417,1.911 C288.576,1.303 290.133,0.861 292.086,0.584 C294.04,0.308 296.54,0.17 299.586,0.17 C302.632,0.17 305.149,0.308 307.135,0.584 C309.122,0.861 310.695,1.303 311.854,1.911 C313.013,2.519 313.824,3.292 314.287,4.232 C314.751,5.171 314.983,6.304 314.983,7.631 L314.983,34.709 C314.983,36.036 314.751,37.169 314.287,38.108 C313.824,39.048 313.013,39.821 311.854,40.429 C310.695,41.037 309.122,41.479 307.135,41.756 C305.149,42.032 302.632,42.17 299.586,42.17 L299.586,42.17 Z M299.586,38.412 C301.308,38.412 302.433,38.173 302.963,37.694 C303.493,37.215 303.758,36.367 303.758,35.152 L303.758,7.244 C303.758,5.991 303.51,5.125 303.013,4.646 C302.516,4.167 301.407,3.928 299.685,3.928 C297.963,3.928 296.854,4.167 296.357,4.646 C295.861,5.125 295.612,5.991 295.612,7.244 L295.612,35.152 C295.612,36.367 295.844,37.215 296.308,37.694 C296.771,38.173 297.864,38.412 299.586,38.412 L299.586,38.412 Z" id="Fill-21" fill="#000000" filter="url(#filter-21)" sketch:type="MSShapeGroup"></path>
            <path d="M326.172,0.667 L338.489,0.667 L349.217,24.541 L349.217,0.667 L360.144,0.667 L360.144,41.783 L349.217,41.783 L337.098,16.086 L337.098,41.783 L326.172,41.783 L326.172,0.667" id="Fill-22" fill="#000000" filter="url(#filter-22)" sketch:type="MSShapeGroup"></path>
        </g>
    </g>
</svg>